<?xml version="1.0" encoding="UTF-8"?>
<svg id="_圖層_2" data-name="圖層 2" xmlns="http://www.w3.org/2000/svg" viewBox="0 0 601.78 521.71">
  <defs>
    <style>
      .cls-1 {
        fill: #efefef;
      }

      .cls-2 {
        fill: #919191;
      }

      .cls-3 {
        fill: #939393;
      }

      .cls-4 {
        fill: #b2b2b2;
      }

      .cls-5 {
        fill: #595959;
      }

      .cls-6 {
        fill: #474747;
      }
    </style>
  </defs>
  <g id="_圖層_1-2" data-name="圖層 1">
    <g id="_6Ouggg" data-name="6Ouggg">
      <g>
        <path class="cls-6" d="M329.32,353.22c-47.47,0-94.94-.04-142.42,.07-3.48,0-4.43-.83-4.42-4.38,.15-58.96,.19-117.93,.09-176.89,0-4.08,.99-5.26,5.18-5.26,88.28,.1,176.56,.03,264.85,.02,12.78,0,24.4,11.42,24.41,24.1,.04,52.64-.05,105.27,.1,157.91,.01,4.05-1.45,4.5-4.88,4.49-47.64-.1-95.28-.07-142.91-.07Z"/>
        <path class="cls-4" d="M175.52,383.49c43.8,.06,87.59,.14,131.39,.16,31.31,0,62.62-.08,93.92-.13,1.9-1.77,4.3-1.6,6.61-1.61,13.31-.05,26.61-.04,39.92-.01,2.34,0,4.68,.04,6.63,1.64,17.83,.03,35.65,.17,53.48,.03,5.2-.04,8.63,1.82,11.5,6.24,5.27,8.14,8.93,16.36,7.88,26.52-.8,7.75-.48,15.66-.05,23.47,.26,4.84-1.54,5.7-5.94,5.69-82.8-.12-165.61-.09-248.41-.09-63.64,0-127.29,0-190.93,0q-6.55,0-6.56-6.6c0-9.33,.22-18.67-.08-27.99-.16-5.07,.95-9.49,3.81-13.62,1.7-2.46,3.26-5.04,4.63-7.69,2.15-4.14,5.32-6,10.06-5.91,9.16,.16,18.32-.02,27.48-.06,1.75-1.64,3.96-1.58,6.12-1.59,14.14-.05,28.29-.06,42.43,0,2.13,0,4.38-.17,6.1,1.55Z"/>
        <path class="cls-2" d="M170.94,260.55c0,29.31-.06,58.61,.08,87.92,.02,3.63-.73,4.86-4.62,4.83-24.14-.18-48.29-.17-72.43,0-3.62,.02-4.38-1.13-4.37-4.53,.07-47.62,0-95.25-.02-142.87,0-8.2,3.95-13.89,11.85-16.56,21.74-7.36,43.55-14.51,65.28-21.9,4.12-1.4,4.38,.39,4.38,3.69-.07,29.81-.04,59.61-.04,89.42h-.11Z"/>
        <path class="cls-3" d="M536.65,.01c14.82,0,29.64-.03,44.47,.02,13.56,.04,20.59,7.13,20.59,20.71,.01,28.82,0,57.64-.02,86.46,0,9.51-4.59,14.15-14.02,14.28-3.16,.04-6.33,.03-9.49,0-9.63-.11-14.2-4.82-14.19-14.63,0-20.99-.2-41.98,.17-62.97,.09-5.34-1.59-6.25-6.44-6.17-22.15,.36-44.3,.33-66.45,.47-11.72,.07-15.53-3.75-15.41-15.56,.02-2.5,.05-5,.05-7.5,0-10.57,4.56-15.09,15.3-15.11,15.15-.02,30.29,0,45.44,0Z"/>
        <path class="cls-3" d="M65.58,.18c15.81,0,31.63-.24,47.44,.09,9.33,.19,13.32,4.88,13.45,14.32,.05,3.83,.19,7.67,.04,11.49-.3,7.36-4.75,11.7-12.1,11.72-21.98,.08-43.97,.14-65.95,.03-10.84-.05-10.83-.24-10.83,10.38,0,19.66,.01,39.32,0,58.98,0,9.49-4.55,14.12-14.03,14.26-3.5,.05-7,.1-10.5-.03C5.04,121.12,.05,116.09,.04,108.08,0,78.25-.02,48.43,.05,18.61,.08,8.32,8.04,.45,18.59,.35c15.66-.14,31.32-.04,46.98-.04V.18Z"/>
        <path class="cls-3" d="M63.19,521.66c-14.82,0-29.65,.06-44.47-.02-11.51-.06-18.65-7.27-18.66-18.78-.04-26.98-.05-53.96-.03-80.94,0-9.11,4.73-13.9,13.78-14.05,3.33-.06,6.66-.05,9.99,0,9.28,.13,13.81,4.66,13.82,13.86,.01,19.15,.06,38.31-.07,57.46-.02,3.56,.3,5.01,4.74,4.96,22.47-.25,44.94-.02,67.41,.2,7.54,.08,11.62,4.32,11.87,11.83,.14,4.33,.17,8.66,.08,12.99-.15,7.72-4.82,12.47-12.5,12.51-15.32,.08-30.64,.02-45.97,.02v-.03Z"/>
        <path class="cls-3" d="M538.66,521.69c-14.98,0-29.97,.04-44.95-.01-8.82-.03-13.14-4.39-13.23-13.2-.04-4.16-.04-8.33,.07-12.49,.2-7.34,5.18-11.89,12.52-11.86,21.81,.1,43.62,0,65.43,.24,4.4,.05,5.65-1.25,5.6-5.63-.23-18.64-.11-37.29-.09-55.94,0-10.66,4.22-14.94,14.72-14.99,3.66-.01,7.33-.11,10.99,.11,7.27,.43,12.04,5.38,12.05,12.63,.03,27.97,.03,55.94-.07,83.91-.04,9.9-7.45,17.12-17.58,17.19-15.15,.1-30.3,.03-45.45,.03v.02Z"/>
        <path class="cls-6" d="M454,383.54c-17.72,0-35.44-.01-53.16-.02,.02-6.99,.14-13.99,.01-20.98-.05-2.59,.73-3.44,3.37-3.42,15.48,.1,30.97,.08,46.45-.04,2.7-.02,3.37,.9,3.32,3.48-.15,6.99-.02,13.98,0,20.98Z"/>
        <path class="cls-6" d="M175.52,383.49c-18.22,.01-36.44,.02-54.65,.03,.02-6.97,.15-13.94,0-20.91-.06-2.64,.85-3.41,3.39-3.4,15.93,.07,31.86,.07,47.79-.06,2.7-.02,3.35,.92,3.32,3.44-.08,6.97,.08,13.94,.15,20.91Z"/>
        <path class="cls-2" d="M540.62,149.94c-.27,3.6-2,7.03-5.87,9.11-11.74,6.28-23.48,12.56-35.27,18.74-5.14,2.69-11.66,.56-14.17-4.43-2.71-5.37-1.03-11.34,4.2-14.2,11.39-6.23,22.77-12.48,34.29-18.46,8.25-4.28,16.6,.12,16.83,9.24Z"/>
        <path class="cls-2" d="M407.63,101.32c0-6.66-.07-13.32,.02-19.98,.09-6.54,3.91-10.54,9.99-10.68,6.42-.14,10.78,3.84,10.85,10.42,.14,13.65,.11,27.3,0,40.95-.04,6.05-4.48,10.16-10.61,10.19-6.04,.03-10.16-4.09-10.24-10.44-.09-6.82-.02-13.65-.02-20.47Z"/>
        <path class="cls-2" d="M480.91,91.54c8.57,1.09,13.59,8.92,9.69,15.81-6.81,12.02-13.98,23.85-21.26,35.6-2.98,4.81-9.46,5.95-14.14,3.1-4.8-2.93-6.53-8.91-3.62-13.9,6.8-11.65,13.56-23.34,20.88-34.66,1.73-2.68,5.58-4,8.45-5.94Z"/>
        <path class="cls-3" d="M391.95,259.25c.17,2.48,.47,4.95,.48,7.43,.03,15.16,0,30.33-.01,45.49,0,6.48-2.29,8.93-8.57,8.93-54.16,0-108.31,0-162.47-.03-7.61,0-9.5-1.96-9.5-9.41,0-9.33,.02-18.66,.04-27.99,2.2-2.19,5.05-1.54,7.59-1.37,9.23,.62,15.08-4.13,19.23-11.67,3.65-6.61,5.27-14,7.81-21.03,1.3-3.6,2.4-7.3,4.28-10.64,2.99-5.3,6.65-5.32,9.52,.05,4.03,7.53,6.02,15.84,8.62,23.91,2.86,8.86,5.18,17.91,9.54,26.23,1.49,2.85,3.34,5.36,5.78,7.44,5.01,4.27,12.16,3.38,16.81-2.11,6.1-7.2,8.56-16.08,11.26-24.82,2.8-9.06,5.28-18.23,9.01-26.97,1.32-3.09,2.21-7.43,6.38-7.5,3.94-.07,4.88,4.11,6.23,7.02,3.6,7.72,5.45,16.05,8.06,24.11,2.61,8.07,4.74,16.33,9.01,23.75,2.52,4.38,5.46,8.48,11.13,9.06,6.54,.66,10.74-2.93,13.75-8.11,4.13-7.08,6.76-14.8,9.06-22.65,.97-3.32,1.7-6.86,5.04-8.88,.6-.36,1.24-.43,1.91-.25Z"/>
        <path class="cls-1" d="M391.95,259.25c-1.67,2.56-3.75,4.95-4.92,7.72-3.42,8.11-6.18,16.5-9.8,24.51-2.16,4.79-5.88,8.4-11.65,9.16-7.25,.95-11.88-2.86-14.95-8.6-2.8-5.25-5.08-10.85-7.03-16.49-3.57-10.38-6.51-20.98-10.19-31.31-1.09-3.06-3.77-5.55-5.72-8.31-1.88,2.8-4.44,5.36-5.54,8.45-4.68,13.16-8.71,26.55-13.47,39.67-1.55,4.28-4.17,8.37-7.08,11.91-5.36,6.52-14.18,6.85-19.55,.4-3.53-4.25-6.35-9.41-8.27-14.62-4.16-11.22-7.48-22.75-11.27-34.11-1-2.98-2.25-5.93-3.77-8.68-2.2-3.97-4.34-4.11-6.3-.03-2.59,5.37-4.45,11.1-6.55,16.7-1.81,4.82-3.2,9.83-5.33,14.5-4.18,9.17-11.04,14.4-21.67,13.45-2.3-.21-4.65,.05-6.98,.1,.05-4.46,.1-8.92,.15-13.38l.31-.32,.42,.15c12.36,1.83,14.73,.26,18.72-11.35,2.97-8.64,6-17.3,9.68-25.64,1.46-3.31,4.35-6.34,7.3-8.55,5.16-3.86,12.26-3.33,16.24,1.68,3.65,4.59,6.71,9.96,8.73,15.46,3.95,10.76,6.91,21.88,10.44,32.79,1.07,3.3,2.42,6.59,4.14,9.59,2.53,4.39,4.81,4.39,6.98-.13,2.29-4.78,4.09-9.81,5.81-14.84,3.45-10.07,6.38-20.32,10.18-30.25,1.74-4.54,4.42-9.05,7.73-12.58,5.42-5.8,13.37-5.8,18.46,.26,3.74,4.46,6.67,9.96,8.66,15.47,4.24,11.72,7.4,23.83,11.52,35.6,1.23,3.51,4.18,6.41,6.34,9.59,2.08-3.06,4.73-5.88,6.11-9.22,2.74-6.6,4.58-13.56,7.15-20.23,2.61-6.76,6.96-11.73,14.95-11.95,0,4.48,0,8.95,0,13.43Z"/>
        <path class="cls-3" d="M452.99,230.44c.07,9.83-6.32,16.37-16.04,16.41-9.49,.04-16.94-6.92-16.97-15.86-.04-9.54,7.13-16.7,16.69-16.69,9.86,.01,16.26,6.34,16.32,16.14Z"/>
        <path class="cls-3" d="M453.02,286.16c-.03,9.44-7.02,16.43-16.39,16.39-9.15-.04-16.1-6.96-16.14-16.07-.04-9.35,7.03-16.69,16.14-16.75,9.34-.06,16.41,7.03,16.39,16.43Z"/>
        <path class="cls-3" d="M383.11,200.53c-31.16,0-62.31,.01-93.47,.02-22.99,0-45.98,.02-68.98-.02-3.76,0-6.99,.65-8.02,4.96-.22,.95-.63,1.9-.63,2.85,0,20.65,.04,41.29,.07,61.94,.17-.09,.35-.14,.53-.16,.21,1.24,1.49,1.32,2.55,1.54,7.91,1.67,12.89-.8,16.05-8.33,2.77-6.61,4.67-13.54,6.98-20.32,1.51-4.44,3.36-8.72,6-12.59,5.85-8.6,15.77-8.88,22.04-.68,2.34,3.07,4.15,6.45,5.4,10.09,2.11,6.14,4.07,12.34,6.05,18.52,2.78,8.7,4.3,17.89,9.15,25.83,3.23,5.29,6.6,5.18,9.6-.18,2.62-4.67,4.11-9.81,5.82-14.86,3.53-10.41,6.04-21.15,10.41-31.27,1.86-4.31,3.93-8.45,7.81-11.4,5-3.8,10.82-3.54,15.46,.62,4.66,4.18,7.01,9.67,8.9,15.39,3.76,11.39,7.09,22.91,10.8,34.31,.77,2.38,1.58,4.75,2.86,6.91,3.45,5.83,6.81,5.83,10.13,0,3.25-5.7,5.25-11.91,6.93-18.17,2.48-9.2,6.77-16.62,16.41-19.74,.12-11.98,.28-23.96,.36-35.93,.05-6.95-2.36-9.35-9.21-9.35Z"/>
        <path class="cls-5" d="M130.28,284.34c-3.5,0-7,.13-10.49-.02-5.31-.23-8.64-3.65-8.8-8.88-.07-2.33-.08-4.67,.04-7,.25-5.04,3.52-8.56,8.48-8.69,7.49-.19,14.99-.1,22.49-.06,.97,0,1.99,.24,2.89,.62,4.76,2.03,6.57,8.49,4.73,17.49-.95,4.67-4.45,6.37-8.84,6.51-3.49,.11-7,.02-10.49,.03Z"/>
        <path class="cls-5" d="M130.16,244.57c-3.5,0-7,.03-10.5-.02-1.32-.02-2.73,.02-3.94-.41-4.25-1.5-6.02-7.44-4.63-16.03,.7-4.33,3-7.47,7.88-7.53,7.83-.09,15.66-.06,23.49-.06,.5,0,1.01,.01,1.49,.12,4.8,1.05,6.65,6.3,5.78,16.33-.4,4.56-3.22,7.5-7.57,7.63-4,.11-8,.02-12,.02v-.05Z"/>
      </g>
    </g>
  </g>
</svg>